<svg width="25" height="24" viewBox="0 0 25 24" fill="none" xmlns="http://www.w3.org/2000/svg">
<g clip-path="url(#clip0_22721_6686)">
<path d="M24.917 12.0733C24.917 5.40541 19.5444 0 12.917 0C6.28957 0 0.916992 5.40541 0.916992 12.0733C0.916992 18.0995 5.30522 23.0943 11.042 24V15.5633H7.99512V12.0733H11.042V9.41343C11.042 6.38755 12.8335 4.71615 15.5746 4.71615C16.8875 4.71615 18.2607 4.95195 18.2607 4.95195V7.92313H16.7476C15.2569 7.92313 14.792 8.85379 14.792 9.80857V12.0733H18.1201L17.5881 15.5633H14.792V24C20.5288 23.0943 24.917 18.0995 24.917 12.0733Z" fill="#B3B3BA"/>
</g>
<defs>
<clipPath id="clip0_22721_6686">
<rect width="24" height="24" fill="white" transform="translate(0.916992)"/>
</clipPath>
</defs>
</svg>
